<?xml version="1.0" standalone="no"?>
<!DOCTYPE svg PUBLIC "-//W3C//DTD SVG 20010904//EN"
 "http://www.w3.org/TR/2001/REC-SVG-20010904/DTD/svg10.dtd">
<svg version="1.0" xmlns="http://www.w3.org/2000/svg"
 width="512.000000pt" height="512.000000pt" viewBox="0 0 512.000000 512.000000"
 preserveAspectRatio="xMidYMid meet">

<g transform="translate(0.000000,512.000000) scale(0.100000,-0.100000)"
fill="#000000" stroke="none">
<path d="M2414 4620 c-312 -41 -584 -264 -684 -562 -183 -546 219 -1108 793
-1108 173 0 325 46 466 141 101 68 161 127 230 228 92 134 141 295 141 464 0
239 -90 449 -264 614 -128 122 -294 200 -476 222 -93 12 -117 12 -206 1z"/>
<path d="M1940 2937 c-82 -16 -253 -68 -352 -108 -199 -79 -430 -209 -487
-274 -73 -83 -80 -111 -186 -725 -67 -388 -76 -450 -66 -485 21 -78 45 -100
231 -225 100 -67 188 -124 196 -127 12 -4 14 77 14 589 l0 594 26 53 c32 64
86 106 157 121 37 8 351 10 1082 8 l1030 -3 40 -22 c52 -28 89 -68 114 -123
20 -44 21 -63 21 -617 0 -315 3 -573 6 -573 4 0 94 55 201 122 211 133 233
154 233 229 0 24 -38 266 -84 537 -92 539 -98 561 -180 651 -117 127 -500 306
-791 370 l-80 18 -70 -38 c-279 -151 -621 -156 -911 -12 -93 46 -102 49 -144
40z"/>
<path d="M1453 2229 c-64 -41 -63 -29 -63 -759 l0 -660 -200 0 -200 0 0 -49
c0 -59 30 -108 80 -133 33 -17 123 -18 1455 -18 1332 0 1422 1 1454 18 49 25
71 60 78 125 l6 57 -201 0 -201 0 -3 673 c-3 638 -4 674 -22 703 -41 68 37 64
-1113 64 -1025 0 -1038 -1 -1070 -21z m1194 -475 c24 -9 43 -19 43 -23 0 -7
-238 -583 -243 -588 -2 -2 -25 6 -50 17 -37 17 -45 24 -39 38 55 140 238 572
241 572 3 0 25 -7 48 -16z m-427 -29 l34 -35 -109 -110 -110 -110 110 -110
110 -110 -38 -37 -37 -38 -147 148 -148 147 145 145 c80 80 147 145 150 145 4
0 21 -16 40 -35z m800 -110 l145 -145 -148 -147 -147 -148 -37 38 -38 37 110
110 110 110 -110 110 -109 110 34 35 c19 19 36 35 40 35 3 0 70 -65 150 -145z"/>
</g>
</svg>
